<svg width="18" height="18" viewBox="0 0 18 18" fill="none" xmlns="http://www.w3.org/2000/svg">
<path d="M4.26947 1.00903V3.00851M13.6004 1.00903V3.00851M0.937012 15.0054V5.00798C0.937012 4.47769 1.14767 3.96912 1.52264 3.59414C1.89762 3.21917 2.40619 3.00851 2.93649 3.00851H14.9333C15.4636 3.00851 15.9722 3.21917 16.3472 3.59414C16.7222 3.96912 16.9328 4.47769 16.9328 5.00798V15.0054M0.937012 15.0054C0.937012 15.5357 1.14767 16.0442 1.52264 16.4192C1.89762 16.7942 2.40619 17.0048 2.93649 17.0048H14.9333C15.4636 17.0048 15.9722 16.7942 16.3472 16.4192C16.7222 16.0442 16.9328 15.5357 16.9328 15.0054M0.937012 15.0054V8.34044C0.937012 7.81015 1.14767 7.30157 1.52264 6.9266C1.89762 6.55163 2.40619 6.34097 2.93649 6.34097H14.9333C15.4636 6.34097 15.9722 6.55163 16.3472 6.9266C16.7222 7.30157 16.9328 7.81015 16.9328 8.34044V15.0054M8.93491 9.67342H8.94202V9.68053H8.93491V9.67342ZM8.93491 11.6729H8.94202V11.68H8.93491V11.6729ZM8.93491 13.6724H8.94202V13.6795H8.93491V13.6724ZM6.93544 11.6729H6.94255V11.68H6.93544V11.6729ZM6.93544 13.6724H6.94255V13.6795H6.93544V13.6724ZM4.93596 11.6729H4.94307V11.68H4.93596V11.6729ZM4.93596 13.6724H4.94307V13.6795H4.93596V13.6724ZM10.9344 9.67342H10.9415V9.68053H10.9344V9.67342ZM10.9344 11.6729H10.9415V11.68H10.9344V11.6729ZM10.9344 13.6724H10.9415V13.6795H10.9344V13.6724ZM12.9339 9.67342H12.941V9.68053H12.9339V9.67342ZM12.9339 11.6729H12.941V11.68H12.9339V11.6729Z" stroke="black" stroke-width="1.59958" stroke-linecap="round" stroke-linejoin="round"/>
</svg>
