<svg width="16" height="11" viewBox="0 0 16 11" fill="none" xmlns="http://www.w3.org/2000/svg">
<path d="M1.98036 0.283691C1.54041 0.283691 1.11848 0.45846 0.807391 0.76955C0.496302 1.08064 0.321533 1.50257 0.321533 1.94252V2.90546L7.3226 6.40641C7.46655 6.47839 7.62529 6.51586 7.78624 6.51586C7.94719 6.51586 8.10592 6.47839 8.24988 6.40641L15.2509 2.90629V1.94252C15.2509 1.50257 15.0762 1.08064 14.7651 0.76955C14.454 0.45846 14.0321 0.283691 13.5921 0.283691H1.98036Z" fill="#334155"/>
<path d="M15.2509 4.29712L8.80641 7.51938C8.48967 7.67778 8.14039 7.76025 7.78624 7.76025C7.43209 7.76025 7.08281 7.67778 6.76606 7.51938L0.321533 4.29712V8.57771C0.321533 9.01766 0.496302 9.43959 0.807391 9.75068C1.11848 10.0618 1.54041 10.2365 1.98036 10.2365H13.5921C14.0321 10.2365 14.454 10.0618 14.7651 9.75068C15.0762 9.43959 15.2509 9.01766 15.2509 8.57771V4.29712Z" fill="#334155"/>
</svg>
