<svg width="18" height="17" viewBox="0 0 18 17" fill="none" xmlns="http://www.w3.org/2000/svg">
<path d="M9.45907 0.268311C4.74564 0.268311 0.927979 4.08811 0.927979 8.7994C0.927979 12.5694 3.37214 15.7665 6.76111 16.8933C7.18767 16.9736 7.34407 16.7099 7.34407 16.4831C7.34407 16.2805 7.33696 15.7437 7.33341 15.0328C4.96034 15.5475 4.45985 13.8882 4.45985 13.8882C4.07169 12.9036 3.51077 12.6405 3.51077 12.6405C2.73799 12.1116 3.57048 12.1223 3.57048 12.1223C4.42715 12.182 4.87716 13.001 4.87716 13.001C5.63785 14.3055 6.87415 13.9287 7.36185 13.7105C7.43862 13.1588 7.6583 12.7827 7.90215 12.5694C6.00753 12.3562 4.01623 11.6225 4.01623 8.35365C4.01623 7.42234 4.34681 6.66165 4.89423 6.06448C4.79825 5.84907 4.51033 4.98174 4.96887 3.80658C4.96887 3.80658 5.68335 3.57766 7.31492 4.68102C7.99741 4.4912 8.72255 4.39736 9.4477 4.39309C10.1728 4.39736 10.898 4.4912 11.5805 4.68102C13.2014 3.57766 13.9159 3.80658 13.9159 3.80658C14.3744 4.98174 14.0865 5.84907 14.0012 6.06448C14.545 6.66165 14.8756 7.42234 14.8756 8.35365C14.8756 11.631 12.8815 12.3526 10.9833 12.5623C11.2819 12.8183 11.5591 13.3415 11.5591 14.1406C11.5591 15.2823 11.5485 16.1994 11.5485 16.4767C11.5485 16.7006 11.6978 16.9672 12.135 16.8819C15.5481 15.7629 17.9902 12.5637 17.9902 8.7994C17.9902 4.08811 14.1704 0.268311 9.45907 0.268311Z" fill="#222222"/>
</svg>
