<svg width="19" height="19" viewBox="0 0 19 19" fill="none" xmlns="http://www.w3.org/2000/svg">
<path d="M9.49252 18.1191C11.3836 18.119 13.221 17.4908 14.7164 16.3332C16.2118 15.1757 17.2804 13.5543 17.7544 11.7236M9.49252 18.1191C7.60147 18.119 5.764 17.4908 4.26862 16.3332C2.77325 15.1757 1.70466 13.5543 1.23063 11.7236M9.49252 18.1191C11.8481 18.1191 13.7581 14.299 13.7581 9.58798C13.7581 4.87692 11.8481 1.05689 9.49252 1.05689M9.49252 18.1191C7.13699 18.1191 5.22698 14.299 5.22698 9.58798C5.22698 4.87692 7.13699 1.05689 9.49252 1.05689M9.49252 1.05689C11.0056 1.05625 12.4916 1.45819 13.7981 2.22144C15.1045 2.98469 16.1844 4.08179 16.9269 5.40016M9.49252 1.05689C7.97945 1.05625 6.49344 1.45819 5.18698 2.22144C3.88052 2.98469 2.80064 4.08179 2.05815 5.40016M16.9269 5.40016C14.863 7.18783 12.223 8.17006 9.49252 8.16613C6.65072 8.16613 4.05158 7.12344 2.05815 5.40016M16.9269 5.40016C17.6481 6.67792 18.026 8.12074 18.0236 9.58798C18.0236 10.3254 17.9298 11.0411 17.7544 11.7236M17.7544 11.7236C15.2265 13.125 12.3828 13.8581 9.49252 13.8535C6.49527 13.8535 3.67906 13.081 1.23063 11.7236M1.23063 11.7236C1.05124 11.0259 0.960788 10.3084 0.961429 9.58798C0.961429 8.0666 1.35955 6.63717 2.05815 5.40016" stroke="#7C3AED" stroke-width="1.06639" stroke-linecap="round" stroke-linejoin="round"/>
</svg>
