<svg width="19" height="18" viewBox="0 0 19 18" fill="none" xmlns="http://www.w3.org/2000/svg">
<g clip-path="url(#clip0_164_330)">
<path d="M15.4809 14.5967H12.9542V10.6376C12.9542 9.69347 12.935 8.4785 11.6376 8.4785C10.3203 8.4785 10.1191 9.50578 10.1191 10.5679V14.5967H7.59243V6.4552H10.0195V7.56496H10.0522C10.3913 6.92513 11.216 6.24975 12.448 6.24975C15.0081 6.24975 15.4816 7.93464 15.4816 10.1278V14.5967H15.4809ZM4.73878 5.34119C3.92549 5.34119 3.27215 4.68287 3.27215 3.87313C3.27215 3.0641 3.9262 2.40649 4.73878 2.40649C5.54924 2.40649 6.20613 3.0641 6.20613 3.87313C6.20613 4.68287 5.54853 5.34119 4.73878 5.34119ZM6.00565 14.5967H3.47192V6.4552H6.00565V14.5967ZM16.7449 0.0568848H2.20363C1.50763 0.0568848 0.94458 0.60714 0.94458 1.28607V15.8899C0.94458 16.5695 1.50763 17.1191 2.20363 17.1191H16.7427C17.438 17.1191 18.0068 16.5695 18.0068 15.8899V1.28607C18.0068 0.60714 17.438 0.0568848 16.7427 0.0568848H16.7449Z" fill="#0A66C2"/>
</g>
<defs>
<clipPath id="clip0_164_330">
<rect width="17.0622" height="17.0622" fill="white" transform="translate(0.94458 0.0568848)"/>
</clipPath>
</defs>
</svg>
