<svg width="26" height="18" viewBox="0 0 26 18" fill="none" xmlns="http://www.w3.org/2000/svg">
<g clip-path="url(#clip0_105_497)">
<path d="M9.93402 17.8947C17.2105 17.8947 21.1897 11.7693 21.1897 6.45748C21.1897 6.28352 21.1862 6.11036 21.1785 5.93791C21.9528 5.36862 22.621 4.66376 23.1518 3.85636C22.443 4.17657 21.6802 4.39209 20.88 4.48926C21.6968 3.99163 22.3238 3.20435 22.6197 2.26592C21.8431 2.73402 20.9935 3.064 20.1076 3.24165C19.3857 2.4603 18.358 1.97162 17.22 1.97162C15.0354 1.97162 13.2638 3.77181 13.2638 5.99081C13.2638 6.30629 13.2986 6.61305 13.3664 6.90739C10.0786 6.73928 7.1631 5.13972 5.21192 2.70751C4.8605 3.32096 4.67565 4.01816 4.67627 4.72791C4.67627 6.12254 5.37464 7.35367 6.4367 8.07396C5.80848 8.05446 5.19405 7.88204 4.64507 7.57118C4.64448 7.58806 4.64448 7.6045 4.64448 7.62254C4.64448 9.56926 6.00807 11.1946 7.8182 11.5629C7.47824 11.657 7.12743 11.7046 6.77507 11.7044C6.52061 11.7044 6.27261 11.6789 6.03159 11.6319C6.53523 13.2291 7.99562 14.3914 9.72709 14.4239C8.3731 15.5022 6.66749 16.1445 4.81375 16.1445C4.4984 16.1448 4.18331 16.1262 3.87012 16.0888C5.62091 17.2291 7.69981 17.8945 9.93421 17.8945" fill="#03045E"/>
</g>
<defs>
<clipPath id="clip0_105_497">
<rect width="26" height="17.7895" fill="white" transform="translate(0 0.105286)"/>
</clipPath>
</defs>
</svg>
